<?xml version="1.0" encoding="UTF-8" standalone="no"?>
<!-- Generator: Adobe Illustrator 25.0.0, SVG Export Plug-In . SVG Version: 6.00 Build 0)  -->

<svg
   xmlns:dc="http://purl.org/dc/elements/1.1/"
   xmlns:cc="http://creativecommons.org/ns#"
   xmlns:rdf="http://www.w3.org/1999/02/22-rdf-syntax-ns#"
   xmlns:svg="http://www.w3.org/2000/svg"
   xmlns="http://www.w3.org/2000/svg"
   xmlns:sodipodi="http://sodipodi.sourceforge.net/DTD/sodipodi-0.dtd"
   xmlns:inkscape="http://www.inkscape.org/namespaces/inkscape"
   version="1.1"
   id="Layer_1"
   x="0px"
   y="0px"
   viewBox="0 0 542.84037 100.161"
   xml:space="preserve"
   sodipodi:docname="logo.svg"
   width="542.84039"
   height="100.161"
   inkscape:version="0.92.4 (5da689c313, 2019-01-14)"><metadata
   id="metadata29"><rdf:RDF><cc:Work
       rdf:about=""><dc:format>image/svg+xml</dc:format><dc:type
         rdf:resource="http://purl.org/dc/dcmitype/StillImage" /><dc:title /></cc:Work></rdf:RDF></metadata><defs
   id="defs27" /><sodipodi:namedview
   pagecolor="#ffffff"
   bordercolor="#666666"
   borderopacity="1"
   objecttolerance="10"
   gridtolerance="10"
   guidetolerance="10"
   inkscape:pageopacity="0"
   inkscape:pageshadow="2"
   inkscape:window-width="1366"
   inkscape:window-height="715"
   id="namedview25"
   showgrid="false"
   fit-margin-bottom="-0.3"
   fit-margin-top="0"
   fit-margin-left="0"
   fit-margin-right="0"
   inkscape:zoom="2.2425732"
   inkscape:cx="172.58682"
   inkscape:cy="4.6292752"
   inkscape:window-x="-8"
   inkscape:window-y="-8"
   inkscape:window-maximized="1"
   inkscape:current-layer="g22" />
<style
   type="text/css"
   id="style2">
	.st0{stroke:#000000;stroke-miterlimit:10;}
</style>
<g
   id="g22"
   transform="translate(-31.64,-269.16)">
	<path
   class="st0"
   d="M 46.5,367.94 H 32.14 V 269.66 H 47.6 v 29.1 c 0,3.46 -0.15,7.84 -0.44,13.16 4.4,-8.52 11.59,-12.78 21.57,-12.78 19.4,0 29.1,11.47 29.1,34.4 0,23.62 -9.83,35.44 -29.49,35.44 -7.5,0 -13.07,-1.64 -16.71,-4.91 -1.53,-1.38 -3.15,-3.44 -4.86,-6.17 z m 18.51,-55.86 c -5.68,0 -10.1,2.33 -13.27,6.99 -2.73,3.97 -4.1,9.15 -4.1,15.56 0,6.41 1.33,11.56 3.99,15.45 3.06,4.51 7.46,6.77 13.21,6.77 5.39,0 9.54,-2.09 12.45,-6.28 2.88,-4.11 4.31,-9.56 4.31,-16.33 0.01,-14.77 -5.52,-22.16 -16.59,-22.16 z"
   id="path4"
   inkscape:connector-curvature="0"
   style="stroke:#000000;stroke-miterlimit:10" />
	<path
   class="st0"
   d="m 128.79,287.62 h -16 v -14.96 h 16 z m -0.27,81.36 h -15.45 v -67.54 h 15.45 z"
   id="path6"
   inkscape:connector-curvature="0"
   style="stroke:#000000;stroke-miterlimit:10" />
	<path
   class="st0"
   d="m 161.55,367.94 h -14.36 v -98.28 h 15.45 v 29.1 c 0,3.46 -0.15,7.84 -0.44,13.16 4.4,-8.52 11.59,-12.78 21.57,-12.78 19.4,0 29.1,11.47 29.1,34.4 0,23.62 -9.83,35.44 -29.48,35.44 -7.5,0 -13.07,-1.64 -16.71,-4.91 -1.53,-1.38 -3.15,-3.44 -4.86,-6.17 z m 18.51,-55.86 c -5.68,0 -10.1,2.33 -13.27,6.99 -2.73,3.97 -4.1,9.15 -4.1,15.56 0,6.41 1.33,11.56 3.99,15.45 3.06,4.51 7.46,6.77 13.21,6.77 5.39,0 9.54,-2.09 12.45,-6.28 2.88,-4.11 4.31,-9.56 4.31,-16.33 0.01,-14.77 -5.52,-22.16 -16.59,-22.16 z"
   id="path8"
   inkscape:connector-curvature="0"
   style="stroke:#000000;stroke-miterlimit:10" />
	<path
   class="st0"
   d="m 260.78,363.69 -14.52,5.29 -33.62,-92.36 14.52,-5.29 z"
   id="path10"
   inkscape:connector-curvature="0"
   style="stroke:#a13333;stroke-miterlimit:10;fill:#a13333;fill-opacity:1;stroke-opacity:1" />
	<path
   class="st0"
   d="m 294.08,363.69 -14.52,5.29 -23.1,-63.47 14.52,-5.29 z"
   id="path12"
   inkscape:connector-curvature="0"
   style="stroke:#781d42;stroke-miterlimit:10;stroke-opacity:1;fill:#781d42;fill-opacity:1" />
	<path
   class="st0"
   d="m 340.17,297.94 c 8.26,0 15.38,2.18 21.35,6.55 9.21,6.81 13.81,16.64 13.81,29.49 0,10.41 -3.17,18.8 -9.5,25.17 -6.55,6.55 -15.03,9.83 -25.44,9.83 -9.97,0 -18.22,-3.11 -24.73,-9.34 -6.92,-6.63 -10.37,-15.43 -10.37,-26.43 0,-9.9 2.84,-17.96 8.52,-24.19 6.79,-7.39 15.58,-11.08 26.36,-11.08 z m -0.16,11.36 c -5.13,0 -9.28,1.75 -12.45,5.24 -4.04,4.48 -6.06,10.74 -6.06,18.78 0,6.77 1.42,12.34 4.26,16.71 3.28,5.06 8.14,7.59 14.58,7.59 6.59,0 11.56,-2.69 14.91,-8.08 2.58,-4.19 3.88,-9.48 3.88,-15.89 -0.01,-16.24 -6.38,-24.35 -19.12,-24.35 z"
   id="path14"
   inkscape:connector-curvature="0"
   style="stroke:#000000;stroke-miterlimit:10" />
	<path
   class="st0"
   d="m 427.7,355.98 0.44,11.79 c -4.33,0.8 -7.95,1.2 -10.87,1.2 -14.6,0 -21.9,-8.7 -21.9,-26.1 v -30.3 H 382.1 v -11.3 h 13.38 v -14.52 l 15.45,-4.97 v 19.49 h 16.05 v 11.3 h -16.16 v 26.59 c 0,6.26 0.58,10.48 1.75,12.67 1.71,3.17 5.04,4.75 9.99,4.75 1.35,0 3.06,-0.2 5.14,-0.6 z"
   id="path16"
   inkscape:connector-curvature="0"
   style="stroke:#000000;stroke-miterlimit:10" />
	<path
   class="st0"
   d="m 493.55,351.83 0.33,12.61 c -7.24,3.02 -14.82,4.53 -22.71,4.53 -11.21,0 -19.86,-3.11 -25.94,-9.34 -6.26,-6.44 -9.39,-15.16 -9.39,-26.15 0,-10.59 2.93,-19.15 8.79,-25.66 5.93,-6.59 13.81,-9.88 23.64,-9.88 10.12,0 17.87,3.53 23.26,10.59 4.66,6.12 6.99,13.67 6.99,22.66 0,1.42 -0.13,3.79 -0.38,7.1 H 450.8 c 1.38,12.89 8.63,19.33 21.73,19.33 6.58,0 13.59,-1.93 21.02,-5.79 z m -9.67,-24.02 c -0.33,-12.81 -5.64,-19.22 -15.94,-19.22 -10.08,0 -15.87,6.41 -17.36,19.22 z"
   id="path18"
   inkscape:connector-curvature="0"
   style="stroke:#000000;stroke-miterlimit:10" />
	<path
   class="st0"
   d="m 527.62,335.12 c 0.15,4.84 0.22,7.75 0.22,8.74 v 25.12 H 512.39 V 270.7 h 15.45 v 45.54 l -0.11,9.06 c 0,0.8 0,1.75 0,2.84 1.42,-1.42 3.51,-3.66 6.28,-6.72 l 18.13,-19.98 h 17.85 l -27.08,29.98 30.52,37.57 H 554.1 L 534.22,343.6 c -3.42,-4.27 -5.62,-7.09 -6.6,-8.48 z"
   id="path20"
   inkscape:connector-curvature="0"
   style="stroke:#000000;stroke-miterlimit:10" />
</g>
</svg>